<?xml version="1.0" standalone="no"?>
<!DOCTYPE svg PUBLIC "-//W3C//DTD SVG 20010904//EN"
 "http://www.w3.org/TR/2001/REC-SVG-20010904/DTD/svg10.dtd">
<svg version="1.0" xmlns="http://www.w3.org/2000/svg"
 width="706.000000pt" height="706.000000pt" viewBox="0 0 706.000000 706.000000"
 preserveAspectRatio="xMidYMid meet">
<metadata>
Created by potrace 1.14, written by Peter Selinger 2001-2017
</metadata>
<g transform="translate(0.000000,706.000000) scale(0.100000,-0.100000)"
fill="#000000" stroke="none">
<path d="M3285 7003 c-600 -49 -1116 -220 -1595 -526 -894 -572 -1462 -1497
-1570 -2557 -15 -149 -13 -520 4 -691 68 -672 341 -1311 784 -1839 96 -114
315 -332 425 -423 764 -634 1732 -904 2710 -756 1006 151 1893 749 2424 1634
173 287 318 649 392 975 211 937 28 1912 -507 2695 -586 858 -1508 1395 -2547
1484 -110 10 -424 12 -520 4z m-1073 -1903 c74 -11 208 -71 280 -126 123 -95
186 -189 234 -348 21 -70 23 -93 19 -203 -5 -129 -15 -164 -81 -295 -67 -133
-222 -250 -404 -306 -81 -24 -253 -37 -306 -23 -22 6 -70 18 -108 26 -37 9
-89 29 -115 43 -25 15 -62 36 -81 47 -88 50 -225 224 -246 312 -4 16 -10 33
-15 38 -14 19 -31 186 -25 239 10 69 36 172 57 222 42 100 169 238 280 303 58
34 197 73 289 81 84 8 110 6 222 -10z m1493 -14 c97 -21 147 -40 216 -82 126
-76 208 -190 255 -353 24 -83 26 -103 22 -224 -5 -153 -25 -225 -92 -334 -70
-114 -213 -218 -360 -261 -77 -22 -667 -30 -684 -9 -17 20 -18 1243 -1 1263
15 19 37 20 319 17 183 -1 275 -6 325 -17z m1476 -5 c227 -56 374 -194 446
-419 21 -65 25 -97 26 -207 0 -115 -3 -139 -27 -210 -71 -210 -200 -338 -411
-408 -53 -18 -95 -20 -374 -24 -294 -5 -316 -4 -328 13 -19 26 -19 1232 0
1256 18 24 34 25 323 22 224 -3 274 -6 345 -23z m-2146 -1719 c102 -209 185
-386 185 -397 0 -6 49 -114 91 -201 16 -33 29 -63 29 -67 0 -3 24 -57 54 -119
29 -62 59 -131 66 -153 7 -22 25 -62 41 -90 31 -55 46 -119 31 -129 -5 -3 -74
-8 -153 -10 -168 -6 -179 -2 -203 72 -28 83 -24 82 -259 83 -114 0 -212 -3
-218 -7 -6 -3 -24 -36 -41 -72 -16 -37 -33 -69 -38 -72 -11 -7 -309 -4 -316 2
-2 3 25 70 62 149 36 79 93 207 126 284 33 77 64 145 68 150 4 6 26 53 50 105
152 342 279 592 309 606 13 7 29 10 36 8 7 -3 43 -67 80 -142z m1148 109 c12
-13 14 -97 14 -489 0 -309 4 -477 11 -484 6 -6 101 -10 256 -9 208 0 248 -2
261 -15 12 -12 15 -41 15 -139 0 -109 -2 -125 -17 -132 -28 -13 -850 -10 -863
3 -7 7 -11 207 -12 633 -2 605 -1 624 17 637 30 22 299 18 318 -5z m1208 9
c17 -10 18 -34 19 -492 0 -266 4 -486 9 -491 5 -5 121 -9 259 -8 214 0 252 -2
263 -16 9 -10 14 -56 16 -134 3 -114 2 -119 -19 -132 -32 -18 -838 -18 -860 0
-13 11 -15 95 -17 632 -1 620 -1 620 20 634 25 18 279 23 310 7z m-3629 -11
c102 -22 198 -87 245 -166 22 -39 28 -62 31 -134 6 -112 -12 -168 -74 -232
-36 -38 -44 -52 -38 -70 3 -12 7 -22 8 -23 0 0 21 -15 46 -31 65 -44 109 -122
117 -206 10 -115 -35 -239 -112 -306 -106 -90 -222 -111 -631 -111 -238 0
-262 2 -277 18 -14 16 -16 81 -16 632 0 414 4 619 11 627 14 17 612 18 690 2z"/>
<path d="M1972 4804 c-106 -28 -180 -89 -223 -181 -30 -66 -38 -218 -15 -287
38 -112 123 -204 210 -227 89 -24 244 -8 291 31 11 9 32 23 46 32 32 20 93
136 108 204 13 66 1 184 -27 246 -25 57 -83 122 -136 153 -36 20 -145 46 -187
44 -8 0 -38 -7 -67 -15z"/>
<path d="M3411 4796 c-14 -17 -16 -665 -2 -679 15 -15 150 -14 206 2 28 8 74
31 103 53 122 91 165 305 92 461 -29 61 -106 130 -168 151 -71 22 -216 31
-231 12z"/>
<path d="M4865 4793 c-22 -22 -21 -656 1 -674 22 -18 149 -15 214 4 68 21 143
83 174 146 52 102 58 250 15 350 -28 66 -110 143 -174 164 -71 24 -211 30
-230 10z"/>
<path d="M2909 2928 c-17 -14 -69 -151 -69 -181 0 -10 -6 -30 -14 -45 -7 -15
-16 -44 -20 -64 l-7 -38 116 0 c132 0 129 -3 91 88 -13 31 -33 93 -46 137 -33
119 -32 118 -51 103z"/>
<path d="M1411 3197 c-12 -16 -18 -160 -7 -194 10 -31 40 -37 140 -28 121 10
166 44 166 123 0 33 -30 81 -62 98 -33 19 -222 19 -237 1z"/>
<path d="M1416 2717 c-24 -18 -31 -200 -9 -236 15 -23 17 -24 137 -19 126 5
176 19 194 56 34 66 10 162 -48 193 -28 15 -57 19 -145 19 -74 0 -117 -4 -129
-13z"/>
</g>
</svg>
