<svg id="Layer_1" data-name="Layer 1" xmlns="http://www.w3.org/2000/svg" viewBox="0 0 1000 532.46"><defs><style>.cls-1{fill:#231f20;}</style></defs><title>Artboard 1</title><path class="cls-1" d="M387.85,175.86,307.2,430.7H235.28L201.92,292.63,167.08,430.7H95.92L13.73,175.86H112l33.64,124.78,32-124.78h74l31.6,124.69,35.28-124.69Z"/><path class="cls-1" d="M512.78,175.86V415.67q0,36.33-6.41,56.38t-28.49,33.83q-22.08,13.79-62.5,13.78a267.9,267.9,0,0,1-50.95-4.76V442a55.29,55.29,0,0,0,22.05,4.76q26.31,0,26.31-31.07V175.86Z"/><path class="cls-1" d="M705.93,328l85.19,7.26q-6,44.61-37.46,72.67T670.09,436q-58.38,0-94.84-36.71t-36.46-94.1q0-58.64,36.2-96.6t94.1-38q51.36,0,83.69,28.69t37.09,72.54l-87.45,7.27q-5.52-40.34-30.58-40.34-16,0-23.43,14.66t-7.39,51q0,31.32,7.39,46.36t25.69,15Q700.91,365.8,705.93,328Z"/><path class="cls-1" d="M986.27,175.86v64.9H935.4v94q0,19.31,7.27,22.93a33.22,33.22,0,0,0,15,3.63q12,0,28.57-4.26V428.2A303.56,303.56,0,0,1,928.13,434q-46.11,0-67.78-19.79T838.68,351l.25-29.82V240.76H800.84v-64.9h38.09l1.5-82.94,95-1.51v84.45Z"/><path class="cls-1" d="M521.44,73.24A60.24,60.24,0,1,1,461.21,13,60.24,60.24,0,0,1,521.44,73.24Z"/></svg>