<?xml version="1.0" encoding="utf-8"?>
<!-- Generator: Adobe Illustrator 23.0.4, SVG Export Plug-In . SVG Version: 6.00 Build 0)  -->
<svg version="1.1" id="Layer_1" xmlns="http://www.w3.org/2000/svg" xmlns:xlink="http://www.w3.org/1999/xlink" x="0px" y="0px"
	 viewBox="0 0 50 50" style="enable-background:new 0 0 50 50;" xml:space="preserve">
<style type="text/css">
	.st0{fill:#FEFDFE;}
	.st1{fill:#9143FB;}
</style>
<g>
	<path class="st0" d="M50,50c-16.7,0-33.3,0-50,0C0,33.3,0,16.7,0,0c16.7,0,33.3,0,50,0C50,16.7,50,33.3,50,50z M48.9,24.9
		C48.9,24.9,48.9,24.9,48.9,24.9c0-4.4,0-8.7,0-13.1c0-0.5,0-1-0.1-1.5c-0.4-3.9-2.5-6.7-5.9-8.6c-1.5-0.8-3.1-1.1-4.7-1.1
		c-8.8,0-17.6,0-26.5,0c-3,0-5.6,1-7.7,3.2c-2.1,2.1-3.1,4.6-3.1,7.5c0,8.9,0,17.9,0,26.8c0,0.5,0,1.1,0.1,1.6
		C2,45.2,6.3,49,11.7,49c8.9,0,17.7,0,26.6,0c0.8,0,1.6-0.1,2.4-0.3c5-1.2,8.3-5.4,8.3-10.6C49,33.8,48.9,29.4,48.9,24.9z"/>
	<path class="st1" d="M48.9,24.9c0,4.4,0,8.8,0,13.2c0,5.2-3.3,9.4-8.3,10.6C39.9,49,39.1,49,38.3,49c-8.9,0-17.7,0-26.6,0
		C6.3,49,2,45.2,1.2,39.9c-0.1-0.5-0.1-1-0.1-1.6c0-8.9,0-17.9,0-26.8c0-2.9,1-5.4,3.1-7.5c2.1-2.2,4.7-3.2,7.7-3.2
		c8.8,0,17.6,0,26.5,0c1.7,0,3.3,0.3,4.7,1.1c3.4,1.8,5.5,4.6,5.9,8.6c0,0.5,0.1,1,0.1,1.5C48.9,16.2,48.9,20.6,48.9,24.9
		C48.9,24.9,48.9,24.9,48.9,24.9z M29.4,41c5.7-2.9,9.8-10.3,9.1-17.8c-0.6-6.8-4.7-12.2-9.1-14.4c-0.5,0.8-1,1.6-1.4,2.4
		c-0.1,0.1,0,0.3,0.1,0.4c0.9,0.7,1.9,1.2,2.7,2c4,4,5.4,8.9,4.4,14.4c-0.8,4.2-3,7.6-6.6,9.9c-0.2,0.1-0.4,0.3-0.7,0.4
		C28.4,39.2,28.9,40.1,29.4,41z M22.7,20.2c0.2,0.1,0.5,0.3,0.7,0.4c0.2,0.1,0.4,0.1,0.6,0.3c0.7,0.5,1.1,1.2,1.5,2
		c0.3,0.6,0.2,0.8-0.4,0.8c-2.7,0-5.5,0-8.2,0c-0.3,0-0.5-0.1-0.8-0.3c-0.4-0.3-0.7-0.7-1.2-0.9c-1-0.5-1.9-0.1-2.7,0.4
		c-0.5,0.3-0.7,1-0.8,1.6c-0.1,1.2,0.5,2.3,1.6,2.8c1.1,0.5,2.4,0.1,3.1-0.8c0.2-0.3,0.4-0.4,0.8-0.4c2.8,0,5.5,0,8.3,0
		c0.2,0,0.3,0,0.6,0c-0.4,1.6-1.5,2.6-2.9,3.3c0.5,0.9,1,1.7,1.5,2.5c2.9-1.2,4.7-4.2,4.5-7.6c-0.2-3-1.9-5.6-4.5-6.6
		C23.7,18.4,23.2,19.3,22.7,20.2z M26.8,36.5c1.2-0.6,2.2-1.4,3.1-2.3c4-4.1,4.8-10.8,2.1-15.9c-1.2-2.2-2.7-3.9-4.8-5.1
		c-0.1-0.1-0.4-0.1-0.5,0c-0.5,0.8-0.9,1.6-1.4,2.5c3.6,2,5.2,5.1,5.2,9.1c0,4.1-1.7,7.1-5.2,9.2C25.8,34.7,26.3,35.6,26.8,36.5z"/>
	<path class="st0" d="M29.4,41c-0.5-0.9-1-1.7-1.6-2.6c0.2-0.1,0.5-0.3,0.7-0.4c3.6-2.3,5.8-5.7,6.6-9.9c1.1-5.5-0.4-10.4-4.4-14.4
		c-0.8-0.8-1.8-1.3-2.7-2C28,11.5,28,11.3,28,11.2c0.5-0.8,0.9-1.6,1.4-2.4c4.4,2.2,8.5,7.6,9.1,14.4C39.2,30.7,35.1,38.1,29.4,41z"
		/>
	<path class="st0" d="M22.7,20.2c0.5-0.9,1-1.8,1.5-2.6c2.7,1,4.4,3.6,4.5,6.6c0.2,3.3-1.6,6.3-4.5,7.6c-0.5-0.8-1-1.6-1.5-2.5
		c1.4-0.7,2.5-1.7,2.9-3.3c-0.2,0-0.4,0-0.6,0c-2.8,0-5.5,0-8.3,0c-0.3,0-0.6,0.1-0.8,0.4c-0.7,1-2,1.3-3.1,0.8
		c-1.1-0.4-1.7-1.6-1.6-2.8c0.1-0.7,0.3-1.3,0.8-1.6c0.8-0.6,1.7-0.9,2.7-0.4c0.4,0.2,0.8,0.5,1.2,0.9c0.2,0.2,0.4,0.3,0.8,0.3
		c2.7,0,5.5,0,8.2,0c0.6,0,0.7-0.2,0.4-0.8c-0.4-0.7-0.7-1.5-1.5-2c-0.2-0.1-0.4-0.2-0.6-0.3C23.1,20.5,22.9,20.3,22.7,20.2z
		 M14.6,24.8c0-0.4-0.3-0.7-0.7-0.7c-0.4,0-0.8,0.3-0.7,0.7c0,0.4,0.3,0.7,0.7,0.7C14.2,25.5,14.6,25.2,14.6,24.8z"/>
	<path class="st0" d="M26.8,36.5c-0.5-0.9-1-1.7-1.5-2.5c3.5-2.1,5.2-5.1,5.2-9.2c0-4-1.6-7.1-5.2-9.1c0.5-0.8,0.9-1.6,1.4-2.5
		c0-0.1,0.3-0.1,0.5,0c2.1,1.2,3.7,3,4.8,5.1c2.7,5.1,1.9,11.8-2.1,15.9C29,35.1,28,35.8,26.8,36.5z"/>
	<path class="st1" d="M14.6,24.8c0,0.4-0.4,0.7-0.8,0.7c-0.4,0-0.7-0.3-0.7-0.7c0-0.4,0.3-0.7,0.7-0.7
		C14.3,24.1,14.6,24.4,14.6,24.8z"/>
</g>
</svg>
