<svg id="Layer_1" data-name="Layer 1" xmlns="http://www.w3.org/2000/svg" viewBox="0 0 220 120"><defs><style>.cls-1{fill:#cbbeab;}</style></defs><title>BoldBeanCoffeeRoasters</title><path class="cls-1" d="M17.89,80.07a1,1,0,0,1-1,1H14.71v-18l2.53-.59c.56,0,.65.2.65.67ZM14.71,40.71,17,40c.62-.18.77.12.77.56v15c0,.45,0,1.09-.65,1.3l-2.4.79ZM25.33,87.88c1.31-1.46,1.51-3.2,1.49-5.18V62.15c0-4.76-2.51-4.64-2.92-4.59,1.31-.09,2.92-3.13,2.92-7.31V37.45c0-2,.12-4.77-1.2-5.83s-2.47-.49-4.29.1c-5.28,1.73-15.69,5.69-15.69,5.69V90.05H20.56a6.16,6.16,0,0,0,4.77-2.17"/><path class="cls-1" d="M41.13,80.91c-1.16,0-1.71-.71-1.71-1.22,0,0,0-43.17,0-43.47a2.24,2.24,0,0,1,1.51-2.14c1.07-.24,1.87.43,1.87.92,0,.32,0,44.72,0,44.72a1.52,1.52,0,0,1-1.67,1.19M38.58,26.57a16.56,16.56,0,0,0-6.93,4.7,15.22,15.22,0,0,0-2,3.68,12.6,12.6,0,0,0-.74,5V80.1c0,5.56,4.36,10.33,11.43,10.33,12.81,0,13-7.24,13-11.55V34.57c0-4.47-4-11.46-14.74-8"/><polygon class="cls-1" points="115.17 80.52 120.54 9.12 99.57 9.12 104.94 80.52 115.17 80.52"/><path class="cls-1" d="M108.31,83.72c-5.94.4-9.76,5.66-9.92,12.3s4.4,12.38,10.33,13.14c.17,0,.54,0,.55-.5L108.85,84c0-.24-.36-.27-.54-.25"/><path class="cls-1" d="M111.74,83.72c-.17,0-.5,0-.5.26l-.39,24.68c0,.53.31.54.46.52,6-.72,10.56-6.49,10.4-13.17s-4-11.91-10-12.29"/><polygon class="cls-1" points="70.98 81.08 66.44 81.08 66.44 21.4 55.37 23.74 55.37 90.05 71.95 90.05 70.98 81.08"/><path class="cls-1" d="M212.61,39c-2.89-4.47-18.54-8.22-18.54-8.22V90.05h8.82V40.56c2.35,0,2.93,1.54,2.93,2.4V89.41c0,.39.2.64.57.64H214V45.64c0-2.64-.24-4.68-1.42-6.63"/><path class="cls-1" d="M86.93,80.25c0,.5-.45.82-1,.82h-2V27l2.06-.26a.84.84,0,0,1,1,.87Zm1-62.34L72.71,20.13,73.26,29V90.05H90.48c4.66,0,7.07-3.52,7.07-8.51V28.38c0-7.82-1.16-11.87-9.62-10.47"/><path class="cls-1" d="M182.86,80c0,.82-.89,1.17-1.48,1.17s-1.45-.23-1.45-1.17V59.81a.67.67,0,0,1,.5-.7l2.43-.7Zm-1.71-53.66c-5.38-.84-10.47,1.35-10.47,5.87V51.91l9.25-1.83V35c0-1.21.81-1.32,1.55-1.19a1.61,1.61,0,0,1,1.38,1.43V51.56c0,.32-.21.51-.58.6s-10.91,2.21-10.91,2.21c-.62.14-.69.39-.69,1.36V79.2a26.15,26.15,0,0,0,.69,4.34,12.35,12.35,0,0,0,1.83,3.54,9.17,9.17,0,0,0,2.7,2.41,8.06,8.06,0,0,0,3.72.88c4.52,0,5.34-2.65,5.34-2.65l1.84,2.37h4.58V39.16c0-9.31-7-12.32-10.23-12.83"/><path class="cls-1" d="M135.57,47.47c0,.28,0,.39-.4.49l-2.54.56V26.58l2.12.14c.69.07.82.41.82,1.16Zm0,31.81a1.32,1.32,0,0,1-1.45,1.5h-1.49V55.14l2.47.33c.43.11.47.53.47.82Zm2.92-60.67-15.27-1.54V89.33a.73.73,0,0,0,.81.73h13.55c4.76,0,7.15-3.94,7.15-7.61V57.52a10.91,10.91,0,0,0-.79-4.69,5.12,5.12,0,0,0-2.11-2.17,4,4,0,0,0,2.16-1.8,10.12,10.12,0,0,0,.74-4.57v-19c0-3.31-1.26-5.92-6.24-6.65"/><path class="cls-1" d="M159.14,51.55h-2.93V31c0-.73.81-1.08,1.5-1s1.43.41,1.43,1.17Zm.5-29.63s-12.43-4.84-12.43,11.83V80.41a11.77,11.77,0,0,0,2.07,6.53,7.67,7.67,0,0,0,6.1,3.38,16,16,0,0,0,3.6,0c2.79-.06,9.32-.91,9.21-14.26V61.36l-9.05-1V80.19c0,.59-.85,1-1.45,1s-1.48-.35-1.48-1V57.85l12,1.3V34.87c0-10.53-8.55-12.95-8.55-12.95"/><path class="cls-1" d="M9,102.05a2.79,2.79,0,0,1,0-5.58,2.88,2.88,0,0,1,2,.83l.52-.82a3.7,3.7,0,0,0-2.51-1A3.73,3.73,0,1,0,9,103a3.66,3.66,0,0,0,2.57-1l-.66-.67a2.66,2.66,0,0,1-1.91.75"/><path class="cls-1" d="M24.63,102.06a2.8,2.8,0,0,1,0-5.59,2.8,2.8,0,0,1,0,5.59m0-6.54a3.73,3.73,0,1,0,3.72,3.73,3.73,3.73,0,0,0-3.72-3.73"/><path class="cls-1" d="M39.73,95.71s0,.7,0,1.17V102c0,.15,0,.82,0,.82h1s0-.56,0-.83V100.3h1.19c.33,0,1.71-.07,2-.07l.15-.84-1.56,0H40.72V96.58h1.91c.52,0,1,0,1.59,0l.2-.93s-.94,0-1.66,0Z"/><path class="cls-1" d="M55.8,95.71s0,.7,0,1.17V102c0,.15,0,.82,0,.82h1s0-.56,0-.83V100.3H58c.33,0,1.71-.07,2-.07l.15-.84-1.56,0H56.79V96.58H58.7c.51,0,1,0,1.59,0l.2-.93s-.94,0-1.66,0Z"/><path class="cls-1" d="M72.87,102V100.3h1.2l2,0,.15-.86-1.58,0H72.87V96.57h1.71c.5,0,1,0,1.6,0l.2-.93s-1,.06-1.68.06H71.88s0,.69,0,1.17V102c0,.14,0,.81,0,.81h2.62l1.75,0,.19-.91-1.62,0Z"/><path class="cls-1" d="M88.81,102V100.3H90l2,0,.15-.86-1.58,0H88.81V96.57h1.71c.5,0,1,0,1.6,0l.2-.93s-1,.06-1.68.06H87.82s0,.69,0,1.17V102c0,.14,0,.81,0,.81h2.62l1.75,0,.19-.91-1.62,0Z"/><path class="cls-1" d="M129.6,101.7s-1.32-1.56-1.5-1.72a2.11,2.11,0,0,0,1.52-2c0-1.37-.81-2.25-2.53-2.25h-1.92a9.3,9.3,0,0,1,.08,1.5v4.16c0,.49,0,1.11,0,1.11h1s0-.62,0-1.12V96.52c.7,0,2.51-.18,2.51,1.47,0,1.15-1.32,1.45-2.15,1.54l2.33,2.76c.19.22.43.56.43.56l.77-.67s-.31-.33-.47-.48"/><path class="cls-1" d="M139.57,102a2.66,2.66,0,0,1,0-5.31,2.66,2.66,0,0,1,0,5.31m0-6.21a3.54,3.54,0,1,0,3.53,3.54,3.53,3.53,0,0,0-3.53-3.54"/><path class="cls-1" d="M164.3,99.15c-.12,0-1-.27-1.45-.45s-.85-.61-.85-1a1.32,1.32,0,0,1,1.46-1.19,2.66,2.66,0,0,1,1.75.73l.47-.68a3.53,3.53,0,0,0-2.12-.81,2.14,2.14,0,0,0-2.42,2,1.82,1.82,0,0,0,1.4,1.87,15.23,15.23,0,0,1,1.88.64c.83.45.62,1.88-.94,1.77a3,3,0,0,1-1.64-.67l-.53.7a3.21,3.21,0,0,0,2.22.78c1.48,0,2.25-.87,2.25-1.83a1.88,1.88,0,0,0-1.48-1.86"/><path class="cls-1" d="M174,95.93c-.3,0-1.16,0-1.16,0l-.16.89.95,0h1.23v5c0,.5,0,1,0,1h1s0-.45,0-1v-5h.76c.32,0,1.4.06,1.4.06l.13-.9-1.56,0Z"/><path class="cls-1" d="M186.14,101.87v-1.59h1.13l1.91,0,.14-.82-1.5,0h-1.68V96.75h1.62c.48,0,1,0,1.51,0l.2-.89s-.91.06-1.6.06h-2.68s0,.65,0,1.11v4.88c0,.14,0,.78,0,.78h2.49l1.66,0,.18-.87-1.53,0Z"/><path class="cls-1" d="M201.27,101.72s-1.32-1.56-1.5-1.73a2.09,2.09,0,0,0,1.53-2c0-1.36-.81-2.24-2.54-2.24h-1.92a9.3,9.3,0,0,1,.08,1.5v4.16c0,.49,0,1.11,0,1.11h1s0-.63,0-1.12V96.53c.7,0,2.51-.18,2.51,1.47,0,1.16-1.31,1.46-2.14,1.55l2.32,2.75c.19.23.43.57.43.57l.78-.67s-.32-.34-.48-.48"/><path class="cls-1" d="M212.08,99.15c-.12,0-1-.27-1.45-.45a1.07,1.07,0,0,1-.84-1,1.31,1.31,0,0,1,1.45-1.18,2.66,2.66,0,0,1,1.75.73l.47-.68a3.53,3.53,0,0,0-2.12-.81,2.14,2.14,0,0,0-2.42,2,1.82,1.82,0,0,0,1.4,1.87,16,16,0,0,1,1.89.64c.82.45.62,1.88-1,1.76a2.9,2.9,0,0,1-1.64-.66l-.53.7a3.21,3.21,0,0,0,2.22.78c1.48,0,2.25-.87,2.25-1.83a1.88,1.88,0,0,0-1.48-1.86"/><path class="cls-1" d="M150.09,101l1.42-3.36,1.42,3.36Zm1.42-5.46-3,6.8a3.87,3.87,0,0,1-.3.61h1.07a4,4,0,0,1,.2-.53l.28-.7h3.44l.32.7a4,4,0,0,1,.2.53h1.07a6.28,6.28,0,0,1-.3-.61Z"/><path class="cls-1" d="M211.32,32.55a1.08,1.08,0,0,0,.69-1,1.2,1.2,0,0,0-1.36-1.19h-1.06a3,3,0,0,1,0,.63v2.31a2,2,0,0,1,0,.62h.71a2,2,0,0,1,0-.62v-2.4c.41,0,1.1,0,1.08.67,0,.5-.41.73-.91.8l.91,1.23c.24.32.24.39.24.39l.6-.43-.32-.33Z"/><path class="cls-1" d="M210.72,34.7a2.56,2.56,0,1,1,2.56-2.56,2.66,2.66,0,0,1-2.56,2.56m0-5.61a3.06,3.06,0,1,0,3.06,3.05,3.12,3.12,0,0,0-3.06-3.05"/></svg>