<svg width="50" height="50" viewBox="0 0 384 384" version="1.1" xmlns="http://www.w3.org/2000/svg" xmlns:xlink="http://www.w3.org/1999/xlink">
<g data-name="Canvas" fill="none">
<g data-name="icon--breaker">
<g data-name="Mask Group">
<mask id="mask0" maskUnits="userSpaceOnUse" x="0" y="0" width="384" height="384">
<g data-name="App Mask">
<g transform="scale(2)">
<use xlink:href="#path0" fill="#E0E0E0"/>
</g>
</g>
</mask>
<g mask="url(#mask0)">
<g data-name="bg">
<g transform="scale(2)">
<rect width="192" height="192" fill="url(#paint0_radial)"/>
</g>
</g>
<g data-name="Star">
<g transform="translate(-384 -294.4) scale(2)">
<use xlink:href="#path0" fill="#FFDB66" fill-opacity="0.11" style="mix-blend-mode:overlay"/>
</g>
</g>
<g data-name="Wave Filles">
<g data-name="Intersect">
<g transform="translate(148.889 249.56) scale(2)">
<use xlink:href="#path2" fill="#0069FF"/>
</g>
</g>
<g data-name="Intersect">
<g transform="translate(65.8145 175.432) scale(2)">
<use xlink:href="#path3" fill="#5C9DFF"/>
</g>
</g>
<g data-name="Intersect">
<g transform="translate(-48 142.539) scale(2)">
<use xlink:href="#path4" fill="#B2D2FF"/>
</g>
</g>
<g data-name="Intersect">
<g transform="translate(-48 -48) scale(2)">
<use xlink:href="#path5" fill="#D9E9FF"/>
</g>
</g>
<g data-name="Intersect">
<g transform="translate(36.5352 -48) scale(2)">
<use xlink:href="#path6" fill="white"/>
</g>
</g>
</g>
<g data-name="Strokes">
<g data-name="Vector">
<g transform="translate(-120.965 -76.3601) scale(2)">
<use xlink:href="#path7_0" fill="#003DAD"/>
<use xlink:href="#path7_1" fill="#003DAD"/>
<use xlink:href="#path7_2" fill="#003DAD"/>
<use xlink:href="#path7_3" fill="#003DAD"/>
<use xlink:href="#path7_4" fill="#003DAD"/>
</g>
</g>
</g>
</g>
</g>
</g>
</g>
<defs>

<radialGradient id="paint0_radial" cx="0.5" cy="0.5" r="0.5" gradientUnits="userSpaceOnUse" gradientTransform="translate(-39 4.00001) scale(270)">
<stop stop-color="#FFF266"/>
<stop offset="0.165022" stop-color="#FFA866"/>
<stop offset="0.376647" stop-color="#FF7066"/>
<stop offset="0.656151" stop-color="#FF40C0"/>
</radialGradient>

<path id="path0" fill-rule="evenodd" clip-rule="evenodd" d="M 179.178 12.8223C 171.317 4.96209 160.015 0.5 146.25 0.5L 45.75 0.5C 31.9852 0.5 20.6825 4.96209 12.8223 12.8223C 4.96209 20.6825 0.5 31.9852 0.5 45.75L 0.5 146.25C 0.5 160.015 4.96209 171.317 12.8223 179.178C 20.6825 187.038 31.9852 191.5 45.75 191.5L 146.25 191.5C 160.015 191.5 171.317 187.038 179.178 179.178C 187.038 171.317 191.5 160.015 191.5 146.25L 191.5 45.75C 191.5 31.9852 187.038 20.6825 179.178 12.8223Z"/>
<path id="path2" fill-rule="evenodd" clip-rule="evenodd" d="M 141.556 14.641L 141.556 91.2197L 63.8213 91.2197C 54.5703 83.9382 46.0059 75.8247 38.2393 66.9921C 21.2773 47.7004 8.16895 24.9779 0 0C 4.27832 12.6929 15.0781 22.3859 28.415 25.0941C 41.2002 27.7764 52.5547 29.22 68.0361 29.22C 94.0791 29.22 118.911 24.035 141.556 14.641Z"/>
<path id="path3" fill-rule="evenodd" clip-rule="evenodd" d="M 79.7773 104.056C 62.8145 84.7643 49.707 62.0419 41.5381 37.0638C 40.252 33.2502 39.5557 29.1658 39.5557 24.9186C 39.5557 15.385 43.0664 6.67126 48.8652 0C 26.6709 24.8104 10.8223 55.4259 3.89648 89.2877C 1.3418 101.781 0 114.716 0 127.965L 104.954 127.965C 95.8584 120.766 87.4307 112.76 79.7773 104.056Z"/>
<path id="path4" fill-rule="evenodd" clip-rule="evenodd" d="M 57 144.73C 57 131.482 58.249 118.228 60.8037 105.734C 67.7393 71.827 83.6123 41.1749 105.854 16.3468C 112.819 8.39014 123.058 3.36523 134.463 3.36523C 136.994 3.36523 139.468 3.61267 141.86 4.08484C 129.139 1.43042 115.954 0 102.444 0C 65.7285 0 31.4189 10.3059 2.25195 28.1827C 1.49805 28.6449 0.74707 29.1122 0 29.5845L 0 144.73L 57 144.73Z"/>
<path id="path5" fill-rule="evenodd" clip-rule="evenodd" d="M 102.444 95.2695C 115.954 95.2695 129.138 96.6998 141.86 99.3542C 155.155 101.978 165.96 111.628 170.348 124.203C 150.852 65.0142 103.4 18.4512 43.5752 0.389648C 43.1396 0.258301 42.7041 0.128418 42.2676 0L 0 0L 0 124.854C 0.74707 124.382 1.49805 123.914 2.25195 123.452C 31.4189 105.575 65.7285 95.2695 102.444 95.2695Z"/>
<path id="path6" fill-rule="evenodd" clip-rule="evenodd" d="M 197.051 0C 197.797 15.0352 194.593 37.9668 194.593 72.7799C 194.593 107.623 166.362 135.822 131.7 136.617C 130.79 133.169 129.555 128.804 128.593 125.78C 109.446 65.797 61.6699 18.623 1.30762 0.389648C 0.87207 0.258301 0.436523 0.128418 0 0L 197.051 0Z"/>
<g id="path7">
<path id="path7_0" fill-rule="evenodd" clip-rule="evenodd" d="M 140.991 160.916C 144.549 171.471 153.54 179.533 164.615 181.782L 164.635 181.786L 164.656 181.791C 177.188 184.425 187.886 185.793 202.963 185.78C 228.722 185.815 252.654 180.735 274.996 171.286L 279.968 183.081C 256.484 192.948 230.057 198.545 202.963 198.58C 187.086 198.567 175.078 197.05 162.049 194.322C 146.459 191.149 133.859 179.829 128.862 165.005L 140.991 160.916Z"/>
<path id="path7_1" d="M 147.085 130.095C 141.914 135.909 139.227 142.499 139.344 150.814C 139.321 154.522 139.847 157.582 140.991 160.916L 141 160.943L 141.009 160.97C 148.94 185.33 161.404 206.93 177.972 225.726C 185.431 234.218 193.441 241.827 202.315 248.842L 194.371 258.879C 185.053 251.496 176.207 243.093 168.36 234.178C 151.003 214.39 137.251 190.545 128.844 164.949C 127.428 160.668 126.567 155.581 126.544 150.814C 126.661 140.063 130.997 129.226 137.424 121.697L 147.085 130.095Z"/>
<path id="path7_2" d="M 170.945 119.215C 161.46 119.215 152.952 123.385 147.151 130.012L 147.127 130.039L 147.103 130.067C 125.361 154.26 110.255 183.41 103.556 216.466C 101.061 228.62 99.8747 241.232 99.8817 254.18L 87.0817 254.18C 87.0888 240.631 88.4004 226.734 91.0157 213.901C 98.184 179.158 114.813 147.015 137.541 121.557C 145.671 112.284 157.63 106.415 170.945 106.415C 173.795 106.423 176.888 106.732 179.581 107.255L 177.103 119.813C 175.01 119.393 173.157 119.207 170.945 119.215Z"/>
<path id="path7_3" d="M 138.926 115.85C 103.14 115.782 70.5155 125.597 42.0784 143.089C 29.9634 150.502 19.0449 159.043 8.9635 168.946L 0 159.809C 10.6069 149.418 22.6641 139.988 35.3895 132.176C 65.2864 113.914 101.279 103.118 138.926 103.05C 152.769 103.059 166.595 104.556 179.614 107.262C 195.818 110.472 208.796 122.563 213.471 138.118L 201.213 141.802C 197.871 130.685 188.576 122.077 177.103 119.813L 177.069 119.807L 177.034 119.799C 164.62 117.201 152.09 115.84 138.926 115.85Z"/>
<path id="path7_4" d="M 78.2067 20.6929C 61.0524 15.4972 43.3213 12.7816 24.4818 12.8L 24.4818 0C 44.2921 0.0184355 63.8772 3.01283 81.907 8.43944C 144.292 27.2839 193.654 76.0257 213.439 138.01L 213.441 138.016C 213.99 139.744 214.627 141.9 215.243 144.074C 244.196 140.953 266.942 116.579 266.942 86.9565L 279.742 86.9565C 279.742 125.354 248.657 156.319 210.596 157.192L 205.549 157.308L 204.261 152.427C 203.366 149.034 202.175 144.825 201.244 141.899C 182.736 83.9197 136.544 38.3147 78.2067 20.6929Z"/>
</g>

</defs>
</svg>