<svg width="57px" height="57px" viewBox="0 0 57 57" version="1.1" xmlns="http://www.w3.org/2000/svg" xmlns:xlink="http://www.w3.org/1999/xlink">
    <defs>
        <polygon id="path-1" points="44.3999084 50.8555783 0.083196368 50.8555783 0.083196368 0.0264829745 44.3999084 0.0264829745 44.3999084 50.8555783"></polygon>
    </defs>
    <g id="Sign-in" stroke="none" stroke-width="1" fill="none" fill-rule="evenodd">
        <g id="Web/Sign-Up---1" transform="translate(-604.000000, -125.000000)">
            <g id="Page-1" transform="translate(604.000000, 125.000000)">
                <path d="M9.50741256,33.2242424 C9.50741256,33.2242424 20.0320596,26.784962 23.7983972,18.3602344 C25.7422525,24.3956005 26.5691755,26.411769 26.5691755,26.411769 C26.5691755,26.411769 17.6831557,34.7225914 10.6561058,37.7792196 L9.50741256,33.2242424 Z" id="Fill-1" fill="#FF866A"></path>
                <path d="M43.8559224,20.7479038 C49.1570965,29.9297934 50.2588099,39.2183096 46.3166518,41.494333 C42.3744937,43.7703565 34.8812362,38.1719891 29.5800621,28.990005 C24.2788879,19.8081154 23.1771746,10.5195993 27.1193327,8.24357581 C31.0614907,5.96764689 38.5546537,11.5660142 43.8559224,20.7479038" id="Fill-3" fill="#C1462C"></path>
                <g id="Group-23" transform="translate(0.000000, 33.628487)" fill="#FF5B36">
                    <path d="M5.99934183,9.0774466 C4.23007815,6.01306716 3.8862831,2.84007609 4.5334156,1.07761836 C4.71925588,0.57161481 4.91105136,0.257217684 5.13914524,0.0519993562 L2.37715799,1.64657696 C-0.398157586,3.24890579 -0.801882819,7.74527622 1.47527495,11.6894194 C3.75243273,15.6335625 7.84829185,17.5320447 10.6235129,15.9297159 L13.4721815,14.2851334 C13.0911428,14.4256952 12.7265518,14.4281529 12.1990906,14.3370288 C10.344847,14.0160148 7.77229206,12.1482539 5.99934183,9.0774466" id="Fill-21"></path>
                </g>
                <path d="M35.5136697,20.6831528 L32.0623909,21.4573297 C32.6419365,22.9911264 33.4215015,24.6795694 34.3715934,26.3251916 C35.3217797,27.9708138 36.3674385,29.4620733 37.426142,30.767398 L39.8317621,28.15448 C40.1567462,27.8018939 40.2420097,27.2886118 40.0431247,26.8522747 C39.6003597,25.8803471 39.0979482,24.8989668 38.533905,23.9221237 C37.9689166,22.9433902 37.3675352,22.016741 36.7439399,21.1471863 C36.4655576,20.7591525 35.9796883,20.5783222 35.5136697,20.6831528" id="Fill-24" fill="#FF5B36"></path>
                <g id="Group-28" transform="translate(6.238788, 5.553940)">
                    <mask id="mask-2" fill="white">
                        <use xlink:href="#path-1"></use>
                    </mask>
                    <g id="Clip-27"></g>
                    <path d="M39.1182999,34.2583026 C36.7269534,35.6388709 29.6556648,30.8433222 24.9134294,22.6294846 C20.171194,14.415647 19.6457179,5.84081043 21.944995,4.51327188 C24.2443666,3.18582785 31.3919386,7.93732692 36.1342685,16.1511645 C40.8765039,24.3650021 41.5095519,32.8777344 39.1182999,34.2583026 M18.8292873,20.1203573 C14.6539309,24.509345 8.04535249,28.7588106 5.29480301,30.4479153 C5.02710228,29.6770469 4.78671987,28.7652385 4.69342162,27.8729972 C11.8135807,23.4537609 15.3164713,19.4912795 17.3050379,15.9820555 C17.6153703,17.0448237 18.1908513,18.6649236 18.8292873,20.1203573 M19.3905892,0.748824759 C18.2930351,1.38253442 17.7287083,2.54625751 17.3438885,3.74041833 C16.6920297,5.76310916 16.8952629,7.96596863 15.8826887,11.0314824 C14.0633256,16.5399545 9.80629779,21.8299744 4.39632296,24.9534333 L1.16349623,26.8199653 C-0.217639189,27.6173014 -0.526553743,32.0588461 1.75060403,36.0030838 C3.45653455,38.9580008 6.12994992,40.795135 7.9445866,41.1958353 C7.94505924,41.1959299 7.94524829,41.1961189 7.94581546,41.1962135 C8.28526226,41.2623824 8.68019648,41.4178795 8.98778765,41.797973 C9.55523382,42.4987969 10.2426349,43.2926354 10.9661453,44.0751307 C13.5264117,46.837307 16.2101305,49.0257039 18.7871282,50.4875654 C19.583519,50.9394995 20.5489243,50.9753252 21.3816135,50.5944756 C22.761331,49.9636963 24.0131533,49.3480413 25.1378367,48.7710479 C25.7369495,48.4637403 25.7421485,47.6129019 25.1488964,47.294251 C23.598463,46.4614673 22.0088008,45.3611719 20.4248102,44.0246533 C20.4248102,44.0246533 20.6092326,43.5803759 20.7374113,43.1020688 C20.7742769,42.9644373 20.8037693,42.8346516 20.8271175,42.7196122 C20.8853462,42.4314936 20.7873216,42.134584 20.572367,41.9339975 C20.1900049,41.5770631 19.7992299,41.1986712 19.4274548,40.8235876 C18.8201182,40.2109575 17.8795736,40.0785251 17.1328095,40.5104194 C17.0578495,40.5537128 16.9805264,40.5984241 16.9010291,40.6444588 C16.2230807,39.9093216 15.7786143,39.3965121 15.3198743,38.846837 C15.1367753,38.6274396 14.9510296,38.4018034 14.7506321,38.1531026 C19.7317375,35.8856811 25.4801194,35.2203049 30.4426029,36.2499886 C33.6037781,36.9059121 35.4099073,38.1833513 37.4874239,38.6301809 C38.714102,38.894006 40.0041133,38.9871152 41.1016675,38.3535001 C46.1173698,35.4576624 45.3231531,24.6920659 39.3277719,14.3078861 C33.3324853,3.92361185 24.4062915,-2.14691834 19.3905892,0.748824759" id="Fill-26" fill="#FF5B36" mask="url(#mask-2)"></path>
                </g>
                <path d="M55.9660062,11.6212464 L50.2729227,15.1683757 C49.4578156,15.6389316 49.1759358,16.6908292 49.6464917,17.5059363 C50.1171421,18.3210435 51.1690396,18.6028288 51.9841468,18.1322729 L57.9025829,14.9754459 C58.4796708,14.6677602 58.6868742,13.9431155 58.359905,13.3767091 L57.5792057,12.0245935 C57.2522364,11.4581872 56.5210693,11.2753718 55.9660062,11.6212464" id="Fill-29" fill="#FF5B36"></path>
                <path d="M61.5402408,26.2948201 L54.895364,27.2104095 C53.9591676,27.3073943 53.2726173,28.1527502 53.3696966,29.0889465 C53.466776,30.0251429 54.3121318,30.7116932 55.2482336,30.6146139 L61.9397123,30.1473664 C62.5920438,30.1018044 63.0769678,29.524811 63.0094755,28.87437 L62.8484958,27.3212898 C62.7810035,26.6708488 62.1881295,26.2055865 61.5402408,26.2948201" id="Fill-31" fill="#FF5B36"></path>
                <g id="Group-35" transform="translate(40.741179, 0.071368)" fill="#FF5B36">
                    <path d="M3.16426622,8.10273044 L7.2784636,2.80495927 C7.67954208,2.28836869 7.57301004,1.54236084 7.04328019,1.15876987 L5.77860215,0.243085883 C5.2488723,-0.140505077 4.50683458,-0.00892335798 4.1412983,0.533378599 L0.392164568,6.09563658 C-0.159779152,6.85790309 0.0122601645,7.93324335 0.774621204,8.48518707 C1.53698224,9.03722532 2.6123225,8.86509148 3.16426622,8.10273044" id="Fill-33"></path>
                </g>
            </g>
        </g>
    </g>
</svg>
