<?xml version="1.0" encoding="utf-8"?>
<!-- Generator: Adobe Illustrator 23.0.4, SVG Export Plug-In . SVG Version: 6.00 Build 0)  -->
<svg version="1.1" id="Layer_1" xmlns="http://www.w3.org/2000/svg" xmlns:xlink="http://www.w3.org/1999/xlink" x="0px" y="0px"
	 viewBox="0 0 50 50" style="enable-background:new 0 0 50 50;" xml:space="preserve">
<style type="text/css">
	.st0{fill-rule:evenodd;clip-rule:evenodd;fill:#191619;}
	.st1{fill-rule:evenodd;clip-rule:evenodd;fill:#E20613;}
	.st2{fill-rule:evenodd;clip-rule:evenodd;fill:#F2987A;}
	.st3{fill-rule:evenodd;clip-rule:evenodd;fill:#FFEC00;}
	.st4{fill-rule:evenodd;clip-rule:evenodd;fill:#E5007E;}
	.st5{fill-rule:evenodd;clip-rule:evenodd;fill:#F19DC3;}
	.st6{fill-rule:evenodd;clip-rule:evenodd;fill:#C7D300;}
	.st7{fill-rule:evenodd;clip-rule:evenodd;fill:#E4E89A;}
	.st8{fill-rule:evenodd;clip-rule:evenodd;fill:#40BFEF;}
	.st9{fill-rule:evenodd;clip-rule:evenodd;fill:#BCE3F9;}
</style>
<title>deezer</title>
<g id="providers-list">
	<g id="deezer">
		<path id="Path" class="st0" d="M2.8,0h44.4C48.8,0,50,1.2,50,2.8v44.4c0,1.5-1.2,2.8-2.8,2.8H2.8C1.2,50,0,48.8,0,47.2V2.8
			C0,1.2,1.2,0,2.8,0z"/>
		<g id="Group" transform="translate(10.000000, 22.000000)">
			<path id="Fill-2" class="st1" d="M-3.1,13.3h6.5v-2h-6.5V13.3z"/>
			<path id="Fill-3" class="st1" d="M-3.1,10.6h6.5v-2h-6.5V10.6z"/>
			<path id="Fill-4" class="st1" d="M-3.1,8.2h6.5v-2h-6.5V8.2z"/>
			<path id="Fill-5" class="st2" d="M-3.1,5.5h6.5v-2h-6.5V5.5z"/>
			<path id="Fill-6" class="st2" d="M-3.1,3h6.5v-2h-6.5V3z"/>
			<path id="Fill-7" class="st3" d="M4.3,13.3h6.5v-2H4.3L4.3,13.3z"/>
			<path id="Fill-8" class="st3" d="M4.3,10.6h6.5v-2H4.3L4.3,10.6z"/>
			<path id="Fill-9" class="st3" d="M4.3,8.2h6.5v-2H4.3L4.3,8.2z"/>
			<path id="Fill-10" class="st4" d="M11.7,13.3h6.5v-2h-6.5V13.3z"/>
			<path id="Fill-11" class="st4" d="M11.7,10.6h6.5v-2h-6.5V10.6z"/>
			<path id="Fill-12" class="st4" d="M11.7,8.2h6.5v-2h-6.5V8.2z"/>
			<path id="Fill-13" class="st5" d="M11.7,5.5h6.5v-2h-6.5V5.5z"/>
			<path id="Fill-14" class="st5" d="M11.7,3h6.5v-2h-6.5V3z"/>
			<path id="Fill-15" class="st5" d="M11.7,0.4h6.5v-2h-6.5V0.4z"/>
			<path id="Fill-16" class="st5" d="M11.7-2.3h6.5v-2h-6.5V-2.3z"/>
			<path id="Fill-17" class="st6" d="M19,13.3h6.5v-2H19L19,13.3z"/>
			<path id="Fill-18" class="st6" d="M19,10.6h6.5v-2H19L19,10.6z"/>
			<path id="Fill-19" class="st6" d="M19,8.2h6.5v-2H19L19,8.2z"/>
			<path id="Fill-20" class="st7" d="M19,5.5h6.5v-2H19L19,5.5z"/>
			<path id="Fill-21" class="st7" d="M19,3h6.5v-2H19L19,3z"/>
			<path id="Fill-22" class="st8" d="M26.4,13.3h6.5v-2h-6.5V13.3z"/>
			<path id="Fill-23" class="st8" d="M26.4,10.6h6.5v-2h-6.5V10.6z"/>
			<path id="Fill-24" class="st8" d="M26.4,8.2h6.5v-2h-6.5V8.2z"/>
			<path id="Fill-25" class="st9" d="M26.4,5.5h6.5v-2h-6.5V5.5z"/>
			<path id="Fill-26" class="st9" d="M26.4,3h6.5v-2h-6.5V3z"/>
			<path id="Fill-27" class="st9" d="M26.4,0.4h6.5v-2h-6.5V0.4z"/>
			<path id="Fill-28" class="st9" d="M26.4-2.3h6.5v-2h-6.5V-2.3z"/>
			<path id="Fill-29" class="st9" d="M26.4-4.7h6.5v-2h-6.5V-4.7z"/>
		</g>
	</g>
</g>
</svg>
