<?xml version="1.0" encoding="utf-8"?>
<!-- Generator: Adobe Illustrator 23.0.4, SVG Export Plug-In . SVG Version: 6.00 Build 0)  -->
<svg version="1.1" id="Layer_1" xmlns="http://www.w3.org/2000/svg" xmlns:xlink="http://www.w3.org/1999/xlink" x="0px" y="0px"
	 viewBox="0 0 50 50" style="enable-background:new 0 0 50 50;" xml:space="preserve">
<style type="text/css">
	.st0{fill:url(#SVGID_1_);}
	.st1{fill:url(#SVGID_2_);}
	.st2{fill:url(#SVGID_3_);}
	.st3{fill:url(#SVGID_4_);}
	.st4{opacity:0.2;enable-background:new    ;}
	.st5{opacity:0.12;enable-background:new    ;}
	.st6{opacity:0.25;fill:#FFFFFF;enable-background:new    ;}
</style>
<g transform="matrix(.181794 0 0 .181794 111.21426 251.37762)">
	
		<linearGradient id="SVGID_1_" gradientUnits="userSpaceOnUse" x1="3325.1543" y1="-3137.9058" x2="3235.438" y2="-3227.6221" gradientTransform="matrix(0.3636 0 0 -0.3636 -1680.2262 -2506.8457)">
		<stop  offset="0" style="stop-color:#00A0FF"/>
		<stop  offset="7.000001e-03" style="stop-color:#00A1FF"/>
		<stop  offset="0.26" style="stop-color:#00BEFF"/>
		<stop  offset="0.512" style="stop-color:#00D2FF"/>
		<stop  offset="0.76" style="stop-color:#00DFFF"/>
		<stop  offset="1" style="stop-color:#00E3FF"/>
	</linearGradient>
	<path class="st0" d="M-592.7-1378.4c-3.1,3.3-5,8.4-5,15v236.4c0,6.6,1.9,11.7,5,15l0.8,0.8l132.5-132.5v-3.1l-132.5-132.5
		L-592.7-1378.4z"/>
	
		<linearGradient id="SVGID_2_" gradientUnits="userSpaceOnUse" x1="3679.0791" y1="-3469.7588" x2="3549.7268" y2="-3469.7588" gradientTransform="matrix(0.3636 0 0 -0.3636 -1680.2262 -2506.8457)">
		<stop  offset="0" style="stop-color:#FFE000"/>
		<stop  offset="0.409" style="stop-color:#FFBD00"/>
		<stop  offset="0.775" style="stop-color:#FFA500"/>
		<stop  offset="1" style="stop-color:#FF9C00"/>
	</linearGradient>
	<path class="st1" d="M-415.3-1199.5l-44.1-44.2v-3.1l44.2-44.2l0.9,0.6l52.3,29.7c15,8.4,15,22.3,0,30.9l-52.3,29.7L-415.3-1199.5z
		"/>
	
		<linearGradient id="SVGID_3_" gradientUnits="userSpaceOnUse" x1="3414.2104" y1="-3537.4692" x2="3292.5486" y2="-3659.1309" gradientTransform="matrix(0.3636 0 0 -0.3636 -1680.2262 -2506.8457)">
		<stop  offset="0" style="stop-color:#FF3A44"/>
		<stop  offset="1" style="stop-color:#C31162"/>
	</linearGradient>
	<path class="st2" d="M-414.2-1200.1l-45.2-45.2L-592.7-1112c4.8,5.2,13.1,5.9,22.2,0.6L-414.2-1200.1"/>
	
		<linearGradient id="SVGID_4_" gradientUnits="userSpaceOnUse" x1="2898.7361" y1="-2887.0037" x2="2953.0632" y2="-2941.3308" gradientTransform="matrix(0.3636 0 0 -0.3636 -1680.2262 -2506.8457)">
		<stop  offset="0" style="stop-color:#32A071"/>
		<stop  offset="6.900000e-02" style="stop-color:#2DA771"/>
		<stop  offset="0.476" style="stop-color:#15CF74"/>
		<stop  offset="0.801" style="stop-color:#06E775"/>
		<stop  offset="1" style="stop-color:#00F076"/>
	</linearGradient>
	<path class="st3" d="M-414.2-1290.3l-156.2-88.8c-9.2-5.2-17.3-4.5-22.2,0.6l133.3,133.3L-414.2-1290.3z"/>
	<path class="st4" d="M-415.3-1201.1l-155.2,88.1c-8.8,5-16.4,4.7-21.4,0.2l-0.8,0.8l0.8,0.8c5,4.5,12.8,4.8,21.4-0.2l156.2-88.8
		L-415.3-1201.1z"/>
	<path class="st5" d="M-592.7-1113.6c-3.1-3.3-5-8.4-5-15v1.6c0,6.6,1.9,11.7,5,15l0.8-0.8L-592.7-1113.6z M-362.1-1231.4
		l-53.3,30.3l0.9,0.9l52.3-29.7c7.5-4.2,11.3-9.8,11.3-15.5C-351.4-1240.1-355.2-1235.3-362.1-1231.4z"/>
	<path class="st6" d="M-570.5-1377.6l208.4,118.4c6.7,3.9,10.6,8.8,11.2,13.9c0-5.6-3.7-11.2-11.2-15.5l-208.4-118.4
		c-15-8.4-27.2-1.4-27.2,15.6v1.6C-597.7-1379-585.5-1386.1-570.5-1377.6z"/>
</g>
</svg>
