<?xml version="1.0" encoding="utf-8"?>
<!-- Generator: Adobe Illustrator 23.0.4, SVG Export Plug-In . SVG Version: 6.00 Build 0)  -->
<svg version="1.1" id="Layer_1" xmlns="http://www.w3.org/2000/svg" xmlns:xlink="http://www.w3.org/1999/xlink" x="0px" y="0px"
	 viewBox="0 0 512 512" style="enable-background:new 0 0 512 512;" xml:space="preserve">
<style type="text/css">
	.st0{fill:#FEFEFE;}
	.st1{fill:#222021;}
	.st2{fill:#DE3833;}
	.st3{fill:#F3542F;}
	.st4{fill:#98BAE0;}
	.st5{fill:#507DBD;}
	.st6{fill:#4B4B4B;}
</style>
<g>
	<path class="st0" d="M1,1c170.7,0,341.3,0,512,0c0,170.7,0,341.3,0,512c-170.7,0-341.3,0-512,0C1,342.3,1,171.7,1,1z M81.8,358.1
		c0.3,0.6,0.4,1.2,0.8,1.8c21.7,36.3,51.6,63.5,90,81.1c26.7,12.3,54.8,18.7,84.3,18.1c9.1-0.4,18.3-0.2,27.3-1.4
		c35.8-5,68.2-18.4,96.7-40.6c20.9-16.3,38.3-35.7,51.2-59c0.5-0.7,1-1.3,1.4-2c24.1-43.3,31.2-89.4,22.2-137.9
		c-4.1-22.1-11.7-43-23.6-62.3c-0.3-0.6-0.5-1.2-0.8-1.8c-25.4-42.4-61.3-71.9-108-88.3c-21.5-7.5-43.5-11.6-66.3-10.9
		c-21.5-0.7-42.3,2.9-62.6,9.5c-26.4,8.5-50,22.1-70.9,40.4c-16.8,14.7-30.8,31.6-41.6,51c-0.5,0.7-1,1.3-1.4,2
		c-24.2,43.4-31.2,89.7-22.2,138.3C62.4,318.1,70,339,81.8,358.1z"/>
	<path class="st1" d="M432.2,358.1c-12.9,23.3-30.3,42.7-51.2,59c-28.6,22.2-61,35.6-96.7,40.6c-9,1.3-18.2,1-27.3,1.4
		c0-32.6,0.1-65.2,0.1-97.7c13.8-0.2,27.1-2.6,39.8-8c22-9.1,38.6-24.4,51-44.5c5.1,3,10.3,6.1,15.4,9.1
		C386.2,331.4,409.2,344.8,432.2,358.1z"/>
	<path class="st2" d="M432.2,358.1c-23-13.3-46-26.7-68.9-40c-5.2-3-10.3-6.1-15.4-9.1c8.2-16,13.2-32.7,13.4-50.9
		c0.2-18.9-4.8-36.3-13.4-52.9c1-0.9,1.8-1.9,2.9-2.5c5.6-3.3,11.2-6.5,16.8-9.7c21.5-12.4,43.1-24.7,64.6-37.1
		c11.9,19.2,19.5,40.2,23.6,62.3c9,48.5,1.9,94.6-22.2,137.9C433.2,356.8,432.6,357.5,432.2,358.1z"/>
	<path class="st3" d="M432.2,155.9c-21.5,12.4-43.1,24.7-64.6,37.1c-5.6,3.2-11.2,6.4-16.8,9.7c-1.1,0.6-2,1.7-2.9,2.5
		c-4.5-6.1-8.6-12.7-13.7-18.3c-20.6-22.5-46.5-33.6-76.9-34.3c-0.1-32.6-0.1-65.2-0.2-97.7c22.8-0.7,44.9,3.4,66.3,10.9
		c46.7,16.3,82.6,45.9,108,88.3C431.7,154.7,431.9,155.3,432.2,155.9z"/>
	<path class="st4" d="M257,54.9c0.1,32.6,0.1,65.2,0.2,97.7c-1.2,0.1-2.3,0.2-3.5,0.2c-26.7,0.6-49.7,10.5-68.9,28.9
		c-6.9,6.6-12.2,14.7-18.3,22.1c-1.9-0.9-3.9-1.7-5.8-2.7c-26.3-15.1-52.6-30.2-78.9-45.4c10.9-19.5,24.8-36.4,41.6-51
		c20.9-18.3,44.5-31.9,70.9-40.4C214.8,57.8,235.6,54.2,257,54.9z"/>
	<path class="st5" d="M81.9,155.8c26.3,15.1,52.6,30.3,78.9,45.4c1.8,1.1,3.9,1.8,5.8,2.7c-0.7,1.7-1.4,3.4-2.2,5
		c-12,23.8-14.7,48.7-8.2,74.6c1,3.8,0.4,6.6-1.4,9.8c-6.5,11.2-12.9,22.5-19.3,33.7c-17.9,10.4-35.8,20.7-53.6,31.1
		c-11.8-19.2-19.5-40-23.5-62c-9-48.6-2-94.9,22.2-138.3C80.9,157.1,81.4,156.5,81.9,155.8z"/>
	<path class="st6" d="M81.8,358.1c17.9-10.4,35.8-20.7,53.6-31.1c10,0.2,19.9,0.8,29.9,0.3c9.4-0.5,17.7,0.4,23.6,8.8
		c0.3,0.4,0.8,0.6,1.1,1c19.4,16.1,41.9,23.9,67,24.3c0,32.6-0.1,65.2-0.1,97.7c-29.5,0.7-57.6-5.8-84.3-18.1
		c-38.4-17.6-68.4-44.8-90-81.1C82.3,359.4,82.1,358.7,81.8,358.1z"/>
	<path class="st0" d="M257,361.4c-25.1-0.4-47.5-8.2-67-24.3c-0.4-0.3-0.9-0.6-1.1-1c-5.9-8.3-14.3-9.2-23.6-8.8
		c-9.9,0.5-19.9-0.2-29.9-0.3c6.4-11.3,12.7-22.6,19.3-33.7c1.9-3.2,2.4-6,1.4-9.8c-6.5-25.8-3.8-50.7,8.2-74.6
		c0.8-1.6,1.5-3.3,2.2-5c6.1-7.4,11.4-15.5,18.3-22.1c19.1-18.4,42.1-28.3,68.9-28.9c1.2,0,2.3-0.2,3.5-0.2
		c30.4,0.6,56.3,11.7,76.9,34.3c5.1,5.6,9.2,12.2,13.7,18.3c8.5,16.6,13.6,34,13.4,52.9c-0.2,18.2-5.3,34.9-13.4,50.9
		c-12.4,20.1-29,35.3-51,44.5C284.1,358.8,270.8,361.2,257,361.4z"/>
</g>
</svg>
