<?xml version="1.0" encoding="utf-8"?>
<!-- Generator: Adobe Illustrator 23.0.4, SVG Export Plug-In . SVG Version: 6.00 Build 0)  -->
<svg version="1.1" id="Layer_1" xmlns="http://www.w3.org/2000/svg" xmlns:xlink="http://www.w3.org/1999/xlink" x="0px" y="0px"
	 viewBox="0 0 50 50" style="enable-background:new 0 0 50 50;" xml:space="preserve">
<style type="text/css">
	.st0{fill:#FCFCFC;}
	.st1{fill:#5E4153;}
	.st2{fill:#1C203C;}
	.st3{fill:#14D5C9;}
	.st4{fill:#15C2BB;}
	.st5{fill:#1C223E;}
	.st6{fill:#1C223D;}
	.st7{fill:#1C233E;}
	.st8{fill:#1A3D53;}
	.st9{fill:#13E7D8;}
	.st10{fill:#1D1130;}
	.st11{fill:#13E6D6;}
	.st12{fill:#14D4C9;}
	.st13{fill:#14D0C6;}
	.st14{fill:#1D0D2E;}
</style>
<g>
	<path class="st0" d="M50.1,38.4c0,3.9,0,7.8,0,11.7c-16.7,0-33.3,0-50,0c0-16.7,0-33.3,0-50c16.7,0,33.3,0,50,0c0,3.9,0,7.8,0,11.7
		c0,0-0.1,0-0.1,0c-0.1-1-0.1-2-0.3-2.9C49,5.4,47,2.9,43.8,1.4C42,0.5,40,0.3,38,0.3c-8.6,0-17.1,0-25.7,0c-1.4,0-2.8,0.2-4.1,0.5
		C5,1.6,2.7,3.6,1.3,6.6c-0.9,1.8-1.1,3.7-1.1,5.6c0,8.8,0,17.7,0.1,26.5c0,1.1,0.2,2.3,0.5,3.4c0.8,3.1,2.8,5.3,5.7,6.7
		c1.8,0.9,3.8,1.1,5.8,1.1c8.2,0,16.4,0,24.6,0c1.4,0,2.8-0.1,4.2-0.3c4-0.7,6.8-3,8.2-6.8C49.9,41.4,50,39.9,50.1,38.4
		C50,38.4,50.1,38.4,50.1,38.4z"/>
	<path class="st1" d="M50.1,38.4C50.1,38.4,50,38.4,50.1,38.4C50,38.3,50,38.1,50,38c0-8.7,0-17.5,0-26.2c0,0,0.1,0,0.1,0
		C50.1,20.7,50.1,29.5,50.1,38.4z"/>
	<path class="st2" d="M50,11.8c0,8.7,0,17.5,0,26.2c0,0.1,0,0.3,0,0.4c0,1.5-0.2,3.1-0.7,4.5c-1.5,3.8-4.2,6.1-8.2,6.8
		c-1.4,0.2-2.8,0.3-4.2,0.3c-8.2,0-16.4,0-24.6,0c-2,0-4-0.2-5.8-1.1c-2.9-1.4-4.9-3.6-5.7-6.7c-0.3-1.1-0.5-2.3-0.5-3.4
		C0.2,29.9,0.2,21,0.2,12.2c0-1.9,0.2-3.8,1.1-5.6c1.4-3,3.7-5,6.8-5.8c1.3-0.3,2.8-0.5,4.1-0.5c8.6,0,17.1,0,25.7,0
		c2,0,4,0.2,5.9,1.1c3.1,1.6,5.2,4,5.9,7.5C49.9,9.9,49.9,10.9,50,11.8z M30.8,33.9c0-0.1,0.1-0.1,0.1-0.2c0-0.2,0.1-0.3,0.1-0.5
		c0-1.1,0-2.1,0-3.2c0.2,0,0.4,0,0.6,0c4.5,0,8.9,0,13.4,0c0.2,0,0.4-0.1,0.7-0.1c0.1-0.1,0.2-0.3,0.2-0.4c0-0.1,0-0.3,0-0.4
		c0-4.1,0-8.2,0-12.2c0-0.1,0-0.3-0.1-0.4c0-0.1,0-0.1-0.1-0.2c-0.2-0.1-0.4-0.3-0.6-0.3c-4.9,0-9.8,0-14.7,0
		c-0.2,0-0.3,0.1-0.5,0.2l0,0c0,0.1-0.1,0.1-0.1,0.2l0,0c0,0.2-0.1,0.4-0.1,0.5c0,1.1,0,2.1-0.1,3.2c-8.2,0-16.4,0-24.6,0
		c-0.5,0-0.7,0.2-0.7,0.7c0,4.2,0,8.4,0,12.6c0,0.4,0.1,0.6,0.6,0.7c0.2,0,0.3,0.1,0.5,0.1c8.1,0,16.2,0,24.3,0c0.2,0,0.3,0,0.5,0
		c0.1,0,0.2,0,0.3,0C30.6,34,30.7,33.9,30.8,33.9L30.8,33.9z"/>
	<path class="st3" d="M45.8,16.2c0,0.1,0,0.1,0.1,0.2c0,0.2-0.1,0.3-0.1,0.5c0,4,0,8,0,12.1c0,0.2,0.1,0.3,0.1,0.5
		c-0.1,0.1-0.2,0.3-0.2,0.4c-4.7,0-9.5,0-14.2,0c-0.1,0-0.3,0.1-0.4,0.2c0,1.1,0,2.1,0,3.2c0,0.2,0,0.3-0.1,0.5
		c0,0.1-0.1,0.1-0.1,0.2c0,0,0,0,0,0c-0.1,0-0.2,0.1-0.3,0.1c-0.1,0-0.2,0-0.3,0C30,34,29.9,34,29.7,34c-8.1,0-16.2,0-24.3,0
		c-0.2,0-0.3,0-0.5,0.1c-0.4,0-0.6-0.3-0.6-0.7c0-4.2,0-8.4,0-12.6c0-0.5,0.2-0.7,0.7-0.7c8.2,0,16.4,0,24.6,0
		c0.1-0.1,0.2-0.2,0.2-0.4c0-1.1,0-2.3,0-3.4c0,0,0,0,0,0c0-0.1,0.1-0.1,0.1-0.2c0,0,0,0,0,0c5,0,10,0,15,0
		C45.2,16.1,45.5,16.2,45.8,16.2z M29.5,21.2C29.5,21.2,29.5,21.3,29.5,21.2c-4.9,0.1-9.7,0.1-14.5,0.1c-3.1,0-6.2,0-9.2,0
		c0,0,0,0,0-0.1c0,0,0,0-0.1-0.1c0,0,0,0.1,0,0.1c0,0.1-0.1,0.2-0.1,0.4c0,3.6,0,7.2,0,10.9c0,0.1,0.1,0.2,0.2,0.4
		c0.1,0,0.1,0,0.2,0c7.8,0,15.6,0,23.3,0c0.1,0,0.2,0,0.4,0c0-0.1,0-0.1,0-0.2c0-3.7,0-7.5,0-11.2c0-0.1,0-0.1-0.1-0.2
		C29.6,21.2,29.6,21.2,29.5,21.2z M34.5,20.7C34.5,20.8,34.5,20.8,34.5,20.7c0,1.5,0,3,0,4.4c-0.3,0-0.6,0-0.8,0
		c-0.3,0-0.5,0.1-0.4,0.4c0,0.1,0,0.3,0,0.4c0,0.3,0.1,0.4,0.4,0.4c1,0,1.9,0,2.9,0c0.3,0,0.4-0.1,0.4-0.4c0-0.1,0-0.3,0-0.4
		c0-0.3-0.1-0.4-0.4-0.4c-0.3,0-0.5,0-0.8,0c0-1.6,0-3,0-4.5c0.2,0,0.4,0,0.6,0c0.4,0,0.6-0.1,0.5-0.5c0-0.1,0-0.2,0-0.3
		c0-0.4-0.1-0.5-0.5-0.5c-0.8,0-1.5,0-2.3,0c-0.7,0-0.7,0-0.7,0.7c0,0,0,0.1,0,0.1c0,0.3,0.1,0.4,0.4,0.4
		C34,20.7,34.3,20.7,34.5,20.7z M42.5,26.2c0-0.2,0-0.3,0-0.5c0-1.9,0-3.9,0-5.8c0-0.2-0.1-0.4-0.1-0.5c-0.3-0.1-0.7-0.1-1,0
		c-0.1,0-0.2,0.4-0.2,0.6c0,1.2,0,2.3,0,3.5c-0.1-0.1-0.2-0.2-0.3-0.4c-0.4-0.9-0.8-1.9-1.2-2.8c-0.4-0.9-0.4-0.9-1.4-0.9
		c-0.3,0-0.4,0.1-0.4,0.4c0,2.1,0,4.2,0,6.3c0,0.1,0.2,0.3,0.3,0.3c0.1,0.1,0.3,0,0.4,0c0.4,0,0.5-0.1,0.5-0.5c0-1,0-2,0-2.9
		c0-0.1,0-0.2,0-0.4c0.1,0.2,0.2,0.3,0.2,0.4c0.5,1,0.9,2,1.4,3.1c0.1,0.1,0.2,0.4,0.3,0.4C41.6,26.4,42,26.4,42.5,26.2
		C42.5,26.3,42.5,26.3,42.5,26.2z"/>
	<path class="st4" d="M4.9,34.1C5.1,34,5.3,34,5.4,34c8.1,0,16.2,0,24.3,0c0.2,0,0.3,0,0.5,0.1c-0.2,0-0.3,0-0.5,0
		c-8.1,0-16.2,0-24.3,0C5.3,34.1,5.1,34.1,4.9,34.1z"/>
	<path class="st4" d="M45.8,16.2c-0.3,0-0.6-0.1-0.8-0.1c-5,0-10,0-15,0c0.2-0.1,0.3-0.2,0.5-0.2c4.9,0,9.8,0,14.7,0
		C45.4,15.9,45.6,16.1,45.8,16.2z"/>
	<path class="st4" d="M31,30c0.1-0.1,0.3-0.2,0.4-0.2c4.7,0,9.5,0,14.2,0c-0.2,0-0.4,0.1-0.7,0.1c-4.5,0-8.9,0-13.4,0
		C31.3,30,31.2,30,31,30z"/>
	<path class="st4" d="M45.8,29.4c0-0.2-0.1-0.3-0.1-0.5c0-4,0-8,0-12.1c0-0.2,0.1-0.3,0.1-0.5c0,0.1,0.1,0.3,0.1,0.4
		c0,4.1,0,8.2,0,12.2C45.9,29.2,45.8,29.3,45.8,29.4z"/>
	<path class="st4" d="M29.8,16.3c0,1.1,0,2.3,0,3.4c0,0.1-0.1,0.2-0.2,0.4c0-1.1,0-2.1,0.1-3.2C29.7,16.7,29.8,16.5,29.8,16.3z"/>
	<path class="st4" d="M30.5,34c0.1,0,0.2-0.1,0.3-0.1C30.7,33.9,30.6,34,30.5,34z"/>
	<path class="st4" d="M29.9,16.1c0,0.1-0.1,0.1-0.1,0.2C29.8,16.2,29.9,16.2,29.9,16.1z"/>
	<path class="st4" d="M30.8,33.9c0-0.1,0.1-0.1,0.1-0.2C30.8,33.8,30.8,33.8,30.8,33.9z"/>
	<path class="st5" d="M29.7,21.4c0,3.7,0,7.5,0,11.2c0,0.1,0,0.1,0,0.2c-0.1,0-0.3,0-0.4,0c-7.8,0-15.6,0-23.3,0c-0.1,0-0.1,0-0.2,0
		c0-3.9,0-7.7,0-11.6c3.1,0,6.2,0,9.2,0c4.8,0,9.7,0,14.5,0C29.6,21.3,29.6,21.4,29.7,21.4z M15.6,28.7c-0.3,0.6-0.7,0.8-1.3,0.7
		c-0.5-0.1-0.9-0.6-0.9-1.2c0-1.4,0-2.8,0-4.2c0-0.4-0.1-0.5-0.5-0.5c-0.1,0-0.3,0-0.4,0c-0.3,0-0.4,0.1-0.4,0.4c0,1.6,0,3.1,0,4.7
		c0,1.2,1.1,2.1,2.4,2.1c1.3,0,2.3-0.9,2.4-2.1c0-1.5,0-3.1,0-4.6c0-0.1-0.1-0.3-0.1-0.3c-0.3,0-0.7-0.1-1,0c-0.1,0-0.1,0.4-0.1,0.6
		C15.7,25.7,15.7,27.1,15.6,28.7C15.6,28.6,15.6,28.7,15.6,28.7z M25.3,26.4c0,0-0.1,0-0.1,0c-0.1,0-0.2-0.1-0.2-0.1
		c0-0.5,0-0.9,0-1.5c0.8,0,1.6,0,2.4,0c0.5,0,0.5-0.3,0.5-0.6c0-0.3,0.1-0.7-0.5-0.7c-1.1,0-2.1,0-3.2,0c-0.4,0-0.5,0.1-0.5,0.5
		c0,2,0,4.1,0,6.1c0,0.3,0.1,0.5,0.5,0.5c1.1,0,2.2,0,3.3,0c0.4,0,0.5-0.1,0.5-0.5c0-0.1,0-0.3,0-0.4c0-0.3-0.1-0.4-0.4-0.4
		c-0.7,0-1.3,0-2,0c-0.2,0-0.4,0-0.5-0.1c0-0.5,0-1,0-1.5c0.8,0,1.5,0,2.2,0c0.4,0,0.6-0.1,0.6-0.6c0-0.1,0-0.1,0-0.2
		c0-0.4-0.1-0.5-0.5-0.5C26.6,26.5,26,26.4,25.3,26.4z M19.3,26.8c0,0,0.1,0,0.1,0c0.4,1,0.9,2,1.3,2.9c0.5,1,0.2,0.8,1.4,0.9
		c0.3,0,0.4-0.1,0.4-0.4c0-2,0-4.1,0-6.1c0-0.5-0.3-0.5-0.6-0.5c-0.3,0-0.7-0.1-0.7,0.5c0,1.1,0,2.2,0,3.3c0,0.1,0,0.2,0,0.3
		c-0.5-1.1-1-2.1-1.4-3.2c-0.4-0.9-0.4-0.9-1.4-0.9c0,0,0,0,0,0c-0.3,0-0.4,0.1-0.4,0.4c0,2.1,0,4.2,0,6.3c0,0.3,0.1,0.4,0.4,0.4
		c0.1,0,0.3,0,0.4,0c0.4,0,0.5-0.1,0.5-0.5C19.3,29,19.3,27.9,19.3,26.8z M9.8,24.8c0.4,0,0.8,0,1.1,0c0.5,0,0.5-0.2,0.5-0.6
		c0-0.3,0.1-0.7-0.5-0.7c-1.1,0-2.2,0-3.3,0c-0.8,0-0.8,0-0.8,0.8c0,0,0,0,0,0c0,0.3,0.1,0.5,0.4,0.4c0.4,0,0.8,0,1.2,0
		c0,0.2,0,0.4,0,0.6c0,1.6,0,3.1,0,4.7c0,0.6,0.3,0.5,0.7,0.5c0.4,0,0.6-0.1,0.6-0.6c0-1.6,0-3.1,0-4.7C9.8,25.2,9.8,25,9.8,24.8z"
		/>
	<path class="st6" d="M42.5,26.3c-0.4,0-0.9,0.1-1.3,0.1c-0.1,0-0.2-0.2-0.3-0.4c-0.5-1-0.9-2-1.4-3.1c0-0.1-0.1-0.2-0.2-0.4
		c0,0.2,0,0.3,0,0.4c0,1,0,2,0,2.9c0,0.4-0.1,0.5-0.5,0.5c-0.1,0-0.3,0-0.4,0c-0.1-0.1-0.3-0.2-0.3-0.3c0-2.1,0-4.2,0-6.3
		c0-0.3,0.1-0.3,0.4-0.4c1,0,1-0.1,1.4,0.9c0.4,0.9,0.8,1.9,1.2,2.8c0.1,0.1,0.1,0.3,0.3,0.4c0-1.2,0-2.3,0-3.5
		c0-0.2,0.1-0.6,0.2-0.6c0.3-0.1,0.7,0,1,0c0.1,0,0.1,0.3,0.1,0.5c0,1.9,0,3.9,0,5.8C42.5,25.9,42.5,26,42.5,26.3
		C42.5,26.3,42.5,26.3,42.5,26.3z"/>
	<path class="st7" d="M34.5,20.7c-0.2,0-0.5-0.1-0.7-0.1c-0.3,0-0.4-0.1-0.4-0.4c0,0,0-0.1,0-0.1c0-0.7,0-0.7,0.7-0.7
		c0.8,0,1.5,0,2.3,0c0.4,0,0.5,0.1,0.5,0.5c0,0.1,0,0.2,0,0.3c0.1,0.4-0.1,0.5-0.5,0.5c-0.2,0-0.3,0-0.6,0c0,1.5,0,3,0,4.5
		c0.2,0,0.5,0,0.8,0c0.3,0,0.4,0.1,0.4,0.4c0,0.1,0,0.3,0,0.4c0,0.3-0.1,0.4-0.4,0.4c-1,0-1.9,0-2.9,0c-0.3,0-0.5-0.1-0.4-0.4
		c0-0.1,0-0.3,0-0.4c0-0.3,0.1-0.5,0.4-0.4c0.2,0,0.5,0,0.8,0C34.5,23.7,34.5,22.3,34.5,20.7C34.5,20.8,34.5,20.8,34.5,20.7z"/>
	<path class="st8" d="M5.8,21.3c0,3.9,0,7.7,0,11.6c-0.1-0.1-0.2-0.2-0.2-0.4c0-3.6,0-7.2,0-10.9C5.6,21.5,5.7,21.4,5.8,21.3
		C5.7,21.2,5.7,21.2,5.8,21.3C5.8,21.2,5.8,21.3,5.8,21.3z"/>
	<path class="st8" d="M29.7,21.4c-0.1,0-0.1-0.1-0.2-0.1c0,0,0,0,0-0.1c0,0,0.1,0,0.1,0C29.7,21.3,29.7,21.3,29.7,21.4z"/>
	<path class="st9" d="M5.8,21.2C5.7,21.2,5.7,21.2,5.8,21.2C5.7,21.2,5.7,21.2,5.8,21.2C5.7,21.2,5.8,21.2,5.8,21.2z"/>
	<path class="st10" d="M34.5,20.7C34.5,20.8,34.5,20.8,34.5,20.7C34.5,20.8,34.5,20.8,34.5,20.7z"/>
	<path class="st9" d="M29.6,21.2c0,0-0.1,0-0.1,0C29.6,21.2,29.6,21.2,29.6,21.2z"/>
	<path class="st11" d="M42.5,26.3C42.5,26.3,42.5,26.3,42.5,26.3C42.5,26.3,42.5,26.3,42.5,26.3z"/>
	<path class="st3" d="M19.3,26.8c0,1.1,0,2.2,0,3.3c0,0.4-0.1,0.5-0.5,0.5c-0.1,0-0.3,0-0.4,0c-0.3,0-0.4-0.1-0.4-0.4
		c0-2.1,0-4.2,0-6.3c0-0.3,0.1-0.4,0.4-0.4c0,0,0,0,0,0c1-0.1,1-0.1,1.4,0.9c0.4,1.1,0.9,2.1,1.4,3.2c0-0.1,0-0.2,0-0.3
		c0-1.1,0-2.2,0-3.3c0-0.5,0.3-0.5,0.7-0.5c0.3,0,0.6,0,0.6,0.5c0,2,0,4.1,0,6.1c0,0.3-0.1,0.4-0.4,0.4c-1.2,0-0.9,0.2-1.4-0.9
		c-0.5-1-0.9-2-1.3-2.9C19.4,26.8,19.3,26.8,19.3,26.8z"/>
	<path class="st12" d="M25.3,26.4c0.7,0,1.4,0,2,0c0.4,0,0.6,0.1,0.5,0.5c0,0.1,0,0.1,0,0.2c0.1,0.4-0.1,0.6-0.6,0.6
		c-0.7,0-1.5,0-2.2,0c0,0.5,0,1,0,1.5c0.2,0,0.3,0.1,0.5,0.1c0.7,0,1.3,0,2,0c0.3,0,0.4,0.1,0.4,0.4c0,0.1,0,0.3,0,0.4
		c0,0.4-0.1,0.5-0.5,0.5c-1.1,0-2.2,0-3.3,0c-0.4,0-0.5-0.1-0.5-0.5c0-2,0-4.1,0-6.1c0-0.4,0.1-0.5,0.5-0.5c1.1,0,2.1,0,3.2,0
		c0.5,0,0.5,0.3,0.5,0.7c0,0.3,0,0.6-0.5,0.6c-0.8,0-1.6,0-2.4,0c0,0.5,0,1,0,1.5c0,0.1,0.1,0.1,0.2,0.1
		C25.2,26.4,25.3,26.4,25.3,26.4z"/>
	<path class="st12" d="M15.6,28.6c0-1.5,0-2.9,0-4.4c0-0.2,0.1-0.6,0.1-0.6c0.3-0.1,0.7,0,1,0c0,0,0.1,0.2,0.1,0.3
		c0,1.5,0,3.1,0,4.6c0,1.2-1.1,2.1-2.4,2.1c-1.3,0-2.4-0.9-2.4-2.1c0-1.6,0-3.1,0-4.7c0-0.3,0.1-0.4,0.4-0.4c0.1,0,0.3,0,0.4,0
		c0.4,0,0.5,0.1,0.5,0.5c0,1.4,0,2.8,0,4.2c0,0.6,0.4,1.1,0.9,1.2C14.9,29.5,15.4,29.2,15.6,28.6C15.6,28.7,15.6,28.6,15.6,28.6z"/>
	<path class="st13" d="M9.8,24.8c0,0.2,0,0.4,0,0.6c0,1.6,0,3.1,0,4.7c0,0.5-0.2,0.6-0.6,0.6c-0.4,0-0.7,0-0.7-0.5
		c0-1.6,0-3.1,0-4.7c0-0.2,0-0.3,0-0.6c-0.4,0-0.8,0-1.2,0c-0.3,0-0.5-0.1-0.4-0.4c0,0,0,0,0,0c0-0.8,0-0.8,0.8-0.8
		c1.1,0,2.2,0,3.3,0c0.6,0,0.5,0.4,0.5,0.7c0,0.3,0,0.6-0.5,0.6C10.6,24.8,10.2,24.8,9.8,24.8z"/>
	<path class="st14" d="M25.3,26.4c0,0-0.1,0-0.1,0C25.2,26.4,25.3,26.4,25.3,26.4z"/>
	<path class="st10" d="M15.6,28.6C15.6,28.6,15.6,28.7,15.6,28.6C15.6,28.7,15.6,28.6,15.6,28.6z"/>
</g>
</svg>
