<svg xmlns="http://www.w3.org/2000/svg" viewBox="0 0 444.19 232.66"><defs><style>.cls-1{fill:#fff;}.cls-2{fill:#ffce00;}</style></defs><title>Asset 1</title><g id="Layer_2" data-name="Layer 2"><g id="Layer_1-2" data-name="Layer 1"><path class="cls-1" d="M135.8,191.35H102.32L87.13,127.49,71,191.35H38L0,73.36H45.35L61,131.05,75.73,73.36h34.19l14.72,57.69L141,73.36h32Z"/><path class="cls-1" d="M227.92,184.47c0,21.13-2.38,29.91-10.45,37.51-7.6,7.12-19.23,10.68-35.61,10.68a99.76,99.76,0,0,1-22.55-2.37V196.58c4.27,1.9,6.64,2.37,10,2.37,9,0,12.34-4,12.34-14.48V73.36h46.3Z"/><path class="cls-2" d="M356.49,147.2c-2.14,13.05-5.22,20.41-12.11,28.48-10.68,12.35-24.69,18-44.15,18-17.1,0-29.68-4.51-40.84-14.48-12.58-11.4-19.47-27.54-19.47-46.06,0-36.8,24.93-62.2,61.25-62.2,16.39,0,30.16,5.22,40.6,15.9,8.55,8.79,12.11,16.62,14.25,30.87l-40.36,3.56c-1.19-6.65-1.43-7.6-2.38-10.21-1.9-5.46-6.17-8.55-11.87-8.55-10.21,0-14.24,8.79-14.24,30.39,0,19.94,4.51,28.25,14.95,28.25,8.55,0,13.3-5.22,15-17.33Z"/><path class="cls-1" d="M444.19,103.51h-23.5V147c0,9,2.61,12.11,10.68,12.11a56.08,56.08,0,0,0,12.82-1.9v33a137.53,137.53,0,0,1-26.59,2.61c-15.9,0-24.92-2.85-32.05-10-5.93-5.94-8.54-12.11-9.26-22.56-.23-3.08-.23-3.08-.23-19.7v-37H358.49V73.36h19.7l3.09-37.75,40.36-1.42-.95,39.17h23.5Z"/><circle class="cls-1" cx="204.62" cy="27" r="27"/><path class="cls-1" d="M253.14,217.43h-2.65v4.76H247V206.32h6.48c3.79,0,6.08,2.25,6.08,5.49v0C259.56,215.52,256.7,217.43,253.14,217.43Zm2.88-5.55c0-1.57-1.09-2.41-2.83-2.41h-2.7v4.85h2.77a2.45,2.45,0,0,0,2.76-2.4Z"/><path class="cls-1" d="M271,222.44c-4.26,0-6.87-2.38-6.87-7.05v-9.07h3.49v9c0,2.58,1.29,3.92,3.42,3.92s3.42-1.29,3.42-3.81v-9.09H278v9C278,220.08,275.28,222.44,271,222.44Z"/><path class="cls-1" d="M291.33,222.19h-7.54V206.32h7.36c3.24,0,5.24,1.61,5.24,4.11v0a3.67,3.67,0,0,1-2.09,3.42c1.84.71,3,1.77,3,3.9v.05C297.27,220.74,294.91,222.19,291.33,222.19ZM292.92,211c0-1.05-.82-1.64-2.29-1.64h-3.44v3.36h3.21c1.55,0,2.52-.5,2.52-1.68Zm.88,6.34c0-1.07-.79-1.72-2.58-1.72h-4v3.49h4.14c1.55,0,2.47-.55,2.47-1.73Z"/><path class="cls-1" d="M302.41,222.19V206.32h3.49V219h7.91v3.18Z"/><path class="cls-1" d="M318.85,222.19V206.32h3.49v15.87Z"/><path class="cls-1" d="M336,222.46a8,8,0,0,1-8.13-8.16v0a8.07,8.07,0,0,1,8.27-8.21,8.17,8.17,0,0,1,6.25,2.45l-2.22,2.56a5.85,5.85,0,0,0-4.05-1.79,4.7,4.7,0,0,0-4.6,4.94v0a4.71,4.71,0,0,0,4.6,5,5.71,5.71,0,0,0,4.17-1.86l2.22,2.25A8.13,8.13,0,0,1,336,222.46Z"/><path class="cls-1" d="M369,222.19V211.83l-4.46,6.78h-.1L360,211.9v10.29h-3.43V206.32h3.77l4.17,6.71,4.17-6.71h3.76v15.87Z"/><path class="cls-1" d="M378.54,222.19V206.32h12v3.11H382v3.22h7.48v3.1H382v3.33h8.61v3.11Z"/><path class="cls-1" d="M402.17,222.19H396V206.32h6.19c5,0,8.43,3.43,8.43,7.89v0C410.6,218.72,407.16,222.19,402.17,222.19Zm4.78-7.93a4.56,4.56,0,0,0-4.78-4.79h-2.7V219h2.7A4.52,4.52,0,0,0,407,214.3Z"/><path class="cls-1" d="M416.12,222.19V206.32h3.49v15.87Z"/><path class="cls-1" d="M437.65,222.19l-1.45-3.56h-6.71L428,222.19h-3.56l6.8-16h3.22l6.79,16Zm-4.81-11.79-2.11,5.15H435Z"/></g></g></svg>